<svg width="36" height="29" viewBox="0 0 36 29" fill="none" xmlns="http://www.w3.org/2000/svg">
<path d="M31.5 28.438H4.5C2.01856 28.438 0 26.4184 0 23.938V8.93799C0 6.45753 2.01856 4.43799 4.5 4.43799H8.1455C8.71776 4.43799 9.23144 4.11963 9.4873 3.60987L9.8291 2.92627C10.5967 1.39111 12.1387 0.437988 13.8545 0.437988H22.1455C23.8613 0.437988 25.4033 1.39111 26.1709 2.92627L26.5127 3.60987C26.7686 4.11963 27.2823 4.43799 27.8545 4.43799H31.5C33.9815 4.43799 36 6.45753 36 8.93799V23.938C36 26.4184 33.9814 28.438 31.5 28.438ZM4.5 7.43799C3.67286 7.43799 3 8.11181 3 8.93799V23.938C3 24.7642 3.67286 25.438 4.5 25.438H31.5C32.3271 25.438 33 24.7642 33 23.938V8.93799C33 8.11181 32.3271 7.43799 31.5 7.43799H27.8545C26.1387 7.43799 24.5967 6.48487 23.8291 4.94971L23.4873 4.26611C23.2314 3.75635 22.7178 3.43799 22.1455 3.43799H13.8545C13.2822 3.43799 12.7685 3.75635 12.5127 4.26611L12.1709 4.94971C11.4033 6.48487 9.8613 7.43799 8.14548 7.43799H4.5Z" fill="white"/>
<path d="M18 23.438C13.5889 23.438 10 19.8501 10 15.438C10 11.0259 13.5889 7.43799 18 7.43799C22.4111 7.43799 26 11.0259 26 15.438C26 19.8501 22.4111 23.438 18 23.438ZM18 10.438C15.2432 10.438 13 12.6802 13 15.438C13 18.1958 15.2432 20.438 18 20.438C20.7568 20.438 23 18.1958 23 15.438C23 12.6802 20.7568 10.438 18 10.438Z" fill="white"/>
</svg>
