<svg width="43" height="43" viewBox="0 0 43 43" fill="none" xmlns="http://www.w3.org/2000/svg">
<path d="M21.4294 32.6802C21.2139 32.6802 21.0004 32.6363 20.8079 32.5505C20.6154 32.4647 20.4438 32.3579 20.2931 32.2073C20.1425 32.0587 20.0357 31.8871 19.9499 31.6946C19.8641 31.502 19.8223 31.2865 19.8223 31.073C19.8223 30.8575 19.8641 30.644 19.9499 30.4515C20.0357 30.259 20.1424 30.0874 20.2931 29.9367C20.4438 29.7861 20.6154 29.6793 20.8079 29.5935C21.2139 29.4219 21.6638 29.4219 22.0509 29.5935C22.2434 29.6793 22.415 29.7861 22.5636 29.9367C22.7143 30.0874 22.821 30.259 22.9068 30.4515C22.9926 30.644 23.0366 30.8575 23.0366 31.073C23.0366 31.2865 22.9926 31.502 22.9068 31.6946C22.821 31.8871 22.7143 32.0587 22.5636 32.2073C22.415 32.3579 22.2435 32.4647 22.0509 32.5505C21.8584 32.6363 21.6429 32.6802 21.4294 32.6802Z" fill="#292929"/>
<path d="M21.4294 27.3228C21.2139 27.3228 21.0004 27.2788 20.8079 27.193C20.6154 27.1072 20.4438 27.0005 20.2931 26.8498C20.1425 26.7012 20.0357 26.5297 19.9499 26.3371C19.8641 26.1446 19.8223 25.9291 19.8223 25.7156C19.8223 25.2866 19.9939 24.8786 20.2931 24.5793C20.4438 24.4287 20.6154 24.3219 20.8079 24.2361C21.2139 24.0645 21.6638 24.0645 22.0509 24.2361C22.2434 24.3219 22.415 24.4286 22.5636 24.5793C22.865 24.8786 23.0366 25.2866 23.0366 25.7156C23.0366 25.9291 22.9926 26.1446 22.9068 26.3371C22.844 26.5296 22.7143 26.7012 22.5636 26.8498C22.415 27.0005 22.2434 27.1072 22.0509 27.193C21.8584 27.2788 21.6429 27.3228 21.4294 27.3228Z" fill="#292929"/>
<path d="M32.6794 36.4291H31.0723V32.2878C31.0723 28.5462 29.6158 25.0305 26.8912 22.3059C26.6526 22.0674 26.5208 21.7493 26.5208 21.4124C26.5208 21.0755 26.6526 20.7574 26.9707 20.4393C29.6158 17.7942 31.0723 14.2786 31.0723 10.537V6.42913H32.6794C33.5667 6.42913 34.2865 5.70926 34.2865 4.82199C34.2865 3.93472 33.5667 3.21484 32.6794 3.21484H10.1794C9.29214 3.21484 8.57227 3.93472 8.57227 4.82199C8.57227 5.70926 9.29214 6.42913 10.1794 6.42913H11.7866V10.537C11.7866 14.2786 13.243 17.7942 15.9676 20.5188C16.2062 20.7574 16.338 21.0755 16.338 21.4124C16.338 21.7493 16.2062 22.0674 15.8881 22.3854C13.243 25.0305 11.7866 28.5462 11.7866 32.2878V36.4291H10.1794C9.29214 36.4291 8.57227 37.149 8.57227 38.0363C8.57227 38.9235 9.29214 39.6434 10.1794 39.6434H32.6794C33.5667 39.6434 34.2865 38.9235 34.2865 38.0363C34.2865 37.149 33.5667 36.4291 32.6794 36.4291ZM27.858 6.42911V10.5369C27.858 11.7235 27.6215 12.8666 27.2501 13.9657C27.1878 13.9584 27.1334 13.9291 27.0691 13.9291H15.7877C15.7228 13.9291 15.6673 13.9587 15.6041 13.9662C15.2363 12.8708 15.0009 11.7261 15.0009 10.5369V6.42911H27.858ZM15.0008 32.2878C15.0008 29.4062 16.1225 26.6962 18.2402 24.5785C19.9855 22.8333 19.9855 19.9915 18.1607 18.1667C17.8442 17.8501 17.5915 17.4908 17.3195 17.1434H25.5304C25.239 17.5179 24.9633 17.9014 24.6186 18.2462C22.8733 19.9914 22.8733 22.8332 24.6981 24.658C26.7363 26.6963 27.858 29.4062 27.858 32.2878V36.4291H15.0008V32.2878Z" fill="#292929"/>
</svg>
