<svg width="43" height="43" viewBox="0 0 43 43" fill="none" xmlns="http://www.w3.org/2000/svg">
<path d="M11.7997 39.9214C11.0296 39.9225 10.2595 39.6808 9.59826 39.1995C8.32594 38.2745 7.76929 36.6967 8.18363 35.1785L10.2784 27.5132C10.4479 26.8938 10.2344 26.2367 9.73427 25.8359L3.53588 20.8659C2.30751 19.8814 1.82828 18.2773 2.31379 16.7801C2.80138 15.2838 4.13021 14.2689 5.70386 14.1946L13.6391 13.819C14.2795 13.7887 14.8382 13.3816 15.0642 12.7831L17.8767 5.3501C18.4333 3.87689 19.8103 2.92578 21.384 2.92578C22.9576 2.92578 24.3346 3.87689 24.8912 5.34905L27.6995 12.7821C27.9276 13.3806 28.4884 13.7887 29.1267 13.819L37.0641 14.1946C38.6356 14.2689 39.9666 15.2838 40.4541 16.7811C40.9396 18.2784 40.4604 19.8824 39.232 20.8659L33.0316 25.8359C32.5335 26.2356 32.318 26.8948 32.4875 27.5132L34.5801 35.1722C34.9945 36.6936 34.4378 38.2745 33.1613 39.1985C31.8806 40.1276 30.2065 40.1569 28.8903 39.2874L22.3089 34.9232C21.7711 34.5685 21.0763 34.5674 20.5386 34.9201L13.8589 39.301C13.2269 39.7153 12.5133 39.9214 11.7997 39.9214ZM21.384 6.14005C21.2145 6.14005 20.9906 6.20073 20.8817 6.48742L18.0713 13.9184C17.3933 15.717 15.7129 16.938 13.7898 17.0291L5.85454 17.4047C5.54901 17.4193 5.42346 17.614 5.37113 17.774C5.31883 17.9352 5.30627 18.1664 5.54481 18.3589L11.7432 23.3279C13.2457 24.5291 13.8882 26.5055 13.3796 28.3617L11.2849 36.0249C11.2033 36.319 11.3498 36.5 11.4879 36.5994C11.6218 36.6956 11.8353 36.7825 12.0969 36.614L18.7765 32.2321C20.39 31.1753 22.4742 31.1784 24.0835 32.2436L30.6648 36.6077C30.9243 36.7772 31.1398 36.6935 31.2759 36.5941C31.414 36.4947 31.5604 36.3148 31.4788 36.0197L29.3862 28.3596C28.8798 26.5045 29.5222 24.5301 31.0227 23.3279L37.2231 18.3579C37.4617 18.1674 37.4491 17.9351 37.3968 17.7751C37.3445 17.6139 37.2189 17.4193 36.9134 17.4047L28.976 17.0291C27.0571 16.938 25.3767 15.718 24.6945 13.9194L21.8862 6.48742C21.7774 6.20073 21.5535 6.14005 21.384 6.14005Z" fill="#292929"/>
</svg>
