<svg width="23" height="23" viewBox="0 0 23 23" fill="none" xmlns="http://www.w3.org/2000/svg">
<mask id="mask0_6_82" style="mask-type:alpha" maskUnits="userSpaceOnUse" x="0" y="0" width="23" height="23">
<path d="M11.0197 20.6621C5.70248 20.6621 1.37744 16.337 1.37744 11.0198C1.37744 5.70251 5.70248 1.37747 11.0197 1.37747C16.337 1.37747 20.6621 5.70251 20.6621 11.0198C20.6621 16.337 16.337 20.6621 11.0197 20.6621ZM11.0197 3.03044C6.61398 3.03044 3.03041 6.61401 3.03041 11.0198C3.03041 15.4255 6.61398 19.0091 11.0197 19.0091C15.4255 19.0091 19.0091 15.4255 19.0091 11.0198C19.0091 6.61401 15.4255 3.03044 11.0197 3.03044Z" fill="#292929"/>
<path d="M11.0205 5.7968C11.2747 5.78784 11.5223 5.8782 11.711 6.04873C12.075 6.45101 12.075 7.06368 11.711 7.46595C11.5244 7.64063 11.2759 7.73382 11.0204 7.72496C10.76 7.73541 10.507 7.63642 10.3229 7.45195C10.1443 7.26693 10.0483 7.01742 10.0569 6.7604C10.0432 6.50147 10.1336 6.24782 10.3078 6.0558C10.4991 5.87426 10.7573 5.78044 11.0205 5.7968Z" fill="#292929"/>
<path d="M11.0197 16.5985C10.5634 16.5985 10.1932 16.2283 10.1932 15.7721V10.444C10.1932 9.98775 10.5634 9.61755 11.0197 9.61755C11.476 9.61755 11.8462 9.98775 11.8462 10.444V15.7721C11.8462 16.2283 11.476 16.5985 11.0197 16.5985Z" fill="#292929"/>
</mask>
<g mask="url(#mask0_6_82)">
<rect width="22.0396" height="22.0396" fill="#222222"/>
</g>
</svg>
