<svg width="43" height="43" viewBox="0 0 43 43" fill="none" xmlns="http://www.w3.org/2000/svg">
<path d="M32.2493 15.4283C32.2493 14.1392 31.747 12.9276 30.8389 12.0194C29.0204 10.1988 25.8396 10.1946 24.019 12.0194L20.1162 15.9221C20.0702 15.9681 20.0262 16.0184 19.9864 16.0686C19.9341 16.1084 19.886 16.1523 19.8379 16.2004L3.55511 32.4832C2.64482 33.3935 2.14258 34.6051 2.14258 35.8921C2.14258 37.1791 2.64482 38.3907 3.55511 39.301C4.46539 40.2113 5.67703 40.7135 6.96401 40.7135C8.25099 40.7135 9.46262 40.2113 10.3729 39.301L30.8368 18.8372C31.747 17.9269 32.2493 16.7152 32.2493 15.4283ZM8.1003 37.0284C7.49344 37.6353 6.43457 37.6353 5.82769 37.0284C5.52426 36.725 5.35684 36.3211 5.35684 35.8921C5.35684 35.4631 5.52424 35.0592 5.82769 34.7558L21.2567 19.3268L23.5398 21.5889L8.1003 37.0284ZM28.5642 16.5645L25.8124 19.3164L23.5293 17.0542L26.2916 14.292C26.8984 13.6851 27.9573 13.683 28.5642 14.2941C28.8676 14.5954 29.035 14.9993 29.035 15.4283C29.035 15.8573 28.8676 16.2611 28.5642 16.5645Z" fill="#292929"/>
<path d="M40.0837 23.2122L37.3811 22.1439L36.9458 19.2681C36.8061 18.351 35.3214 18.1857 34.9835 19.0447L33.9146 21.7494L31.0388 22.1816C30.5826 22.2501 30.2269 22.6179 30.1746 23.0772C30.1223 23.5371 30.3844 23.9734 30.8154 24.1445L33.5202 25.2154L33.9528 28.0891C34.0208 28.5453 34.3886 28.901 34.8485 28.9533C35.3078 29.0056 35.7441 28.7436 35.9157 28.3125L36.9856 25.6104L39.8598 25.1751C40.3186 25.105 40.6718 24.7388 40.7241 24.2794C40.7764 23.8201 40.5127 23.3812 40.0837 23.2122Z" fill="#292929"/>
<path d="M30.7178 7.80475L33.4225 8.87567L33.8552 11.7491C33.9232 12.2056 34.2915 12.5613 34.7508 12.6136C35.2107 12.6659 35.647 12.4038 35.8181 11.9728L36.8884 9.27038L39.7627 8.83538C40.221 8.76555 40.5746 8.39908 40.6269 7.93973C40.6792 7.48039 40.4156 7.04147 39.9861 6.87248L37.2834 5.80418L36.8487 2.92838C36.709 2.01103 35.2238 1.84596 34.8858 2.70473L33.8175 5.40947L30.9417 5.84211C30.485 5.91038 30.1292 6.27816 30.0769 6.73776C30.0246 7.19736 30.2867 7.63369 30.7178 7.80475Z" fill="#292929"/>
<path d="M12.3828 10.0519L14.5774 10.9206L14.9285 13.2526C14.9839 13.6227 15.2827 13.9115 15.6557 13.9539C16.0282 13.9965 16.3823 13.7838 16.5215 13.4338L17.3899 11.241L19.7216 10.8879C20.0941 10.8314 20.3808 10.5342 20.4237 10.1612C20.4661 9.78822 20.2521 9.43246 19.9037 9.2954L17.7106 8.42853L17.3575 6.09472C17.244 5.35027 16.0391 5.21634 15.765 5.91318L14.8981 8.10809L12.5643 8.45913C12.1939 8.51433 11.9051 8.81304 11.8628 9.18605C11.8204 9.5588 12.0328 9.91271 12.3828 10.0519Z" fill="#292929"/>
</svg>
